<svg xmlns="http://www.w3.org/2000/svg" viewBox="0 0 48 48">
  <path fill="#EA4335" d="M24 9.5c3.54 0 6.69 1.22 9.18 3.6l6.83-6.83C35.62 2.3 30.17 0 24 0 14.63 0 6.53 5.34 2.69 13.11l7.9 6.14C12.27 13.41 17.66 9.5 24 9.5z"/>
  <path fill="#34A853" d="M46.1 24.5c0-1.6-.15-3.15-.43-4.65H24v9.06h12.45c-.54 2.9-2.18 5.36-4.65 7.04l7.3 5.67C43.56 37.18 46.1 31.3 46.1 24.5z"/>
  <path fill="#4A90E2" d="M24 48c6.12 0 11.29-2.02 15.05-5.48l-7.3-5.67c-2.03 1.37-4.65 2.15-7.75 2.15-6.04 0-11.17-4.08-13-9.58l-7.9 6.14C6.51 42.67 14.65 48 24 48z"/>
  <path fill="#FBBC05" d="M11 28.42c-.46-1.37-.71-2.83-.71-4.42s.25-3.05.71-4.42l-7.9-6.14C1.42 16.64 0 20.18 0 24s1.42 7.36 3.1 10.56l7.9-6.14z"/>
</svg>

